<svg xmlns="http://www.w3.org/2000/svg" xmlns:xlink="http://www.w3.org/1999/xlink" width="6571" zoomAndPan="magnify" viewBox="0 0 4928.25 1481.249995" height="1975" preserveAspectRatio="xMidYMid meet" version="1.0"><defs><g/><clipPath id="1230fbe760"><path d="M 939 315 L 4926.628906 315 L 4926.628906 1165 L 939 1165 Z M 939 315 " clip-rule="nonzero"/></clipPath><clipPath id="959244b06e"><rect x="0" width="3988" y="0" height="850"/></clipPath><clipPath id="beca8f796c"><path d="M 80.226562 479.828125 L 717.113281 479.828125 L 717.113281 1121.140625 L 80.226562 1121.140625 Z M 80.226562 479.828125 " clip-rule="nonzero"/></clipPath><clipPath id="bd77e7edc4"><path d="M 0.226562 0.828125 L 637.113281 0.828125 L 637.113281 642.140625 L 0.226562 642.140625 Z M 0.226562 0.828125 " clip-rule="nonzero"/></clipPath><clipPath id="99a6cc5a17"><rect x="0" width="638" y="0" height="643"/></clipPath><clipPath id="d15662a629"><path d="M 115 725 L 683 725 L 683 876 L 115 876 Z M 115 725 " clip-rule="nonzero"/></clipPath><clipPath id="a6fc4b2f4b"><path d="M 292.089844 520.023438 L 693.683594 744.894531 L 505.433594 1081.082031 L 103.839844 856.210938 Z M 292.089844 520.023438 " clip-rule="nonzero"/></clipPath><clipPath id="c3522b5d6a"><path d="M 292.089844 520.023438 L 693.683594 744.894531 L 505.433594 1081.082031 L 103.839844 856.210938 Z M 292.089844 520.023438 " clip-rule="nonzero"/></clipPath></defs><g clip-path="url(#1230fbe760)"><g transform="matrix(1, 0, 0, 1, 939, 315)"><g clip-path="url(#959244b06e)"><g fill="#ffffff" fill-opacity="1"><g transform="translate(0.469249, 646.658592)"><g><path d="M 21.453125 0 L 21.453125 -66.9375 L 185.875 -253.46875 L 23.390625 -253.46875 L 23.390625 -322.359375 L 280.765625 -322.359375 L 280.765625 -255.40625 L 113.734375 -68.890625 L 284.015625 -68.890625 L 284.015625 0 Z M 21.453125 0 "/></g></g></g><g fill="#ffffff" fill-opacity="1"><g transform="translate(311.76866, 646.658592)"><g><path d="M 163.125 7.796875 C 122.832031 7.796875 91.742188 -4.765625 69.859375 -29.890625 C 47.984375 -55.023438 37.046875 -91.851562 37.046875 -140.375 L 37.046875 -322.359375 L 119.578125 -322.359375 L 119.578125 -148.171875 C 119.578125 -120.441406 125.207031 -99.210938 136.46875 -84.484375 C 147.738281 -69.753906 165.503906 -62.390625 189.765625 -62.390625 C 212.734375 -62.390625 231.691406 -70.617188 246.640625 -87.078125 C 261.585938 -103.546875 269.0625 -126.515625 269.0625 -155.984375 L 269.0625 -322.359375 L 352.25 -322.359375 L 352.25 0 L 278.8125 0 L 272.3125 -54.59375 C 262.34375 -35.53125 247.9375 -20.363281 229.09375 -9.09375 C 210.25 2.164062 188.257812 7.796875 163.125 7.796875 Z M 163.125 7.796875 "/></g></g></g><g fill="#ffffff" fill-opacity="1"><g transform="translate(706.904443, 646.658592)"><g><path d="M 42.25 0 L 42.25 -322.359375 L 115.6875 -322.359375 L 122.1875 -267.765625 C 132.144531 -286.828125 146.546875 -301.988281 165.390625 -313.25 C 184.242188 -324.519531 206.453125 -330.15625 232.015625 -330.15625 C 271.878906 -330.15625 302.859375 -317.585938 324.953125 -292.453125 C 347.046875 -267.328125 358.09375 -230.5 358.09375 -181.96875 L 358.09375 0 L 274.90625 0 L 274.90625 -174.171875 C 274.90625 -201.898438 269.269531 -223.128906 258 -237.859375 C 246.738281 -252.597656 229.195312 -259.96875 205.375 -259.96875 C 181.976562 -259.96875 162.804688 -251.734375 147.859375 -235.265625 C 132.910156 -218.796875 125.4375 -195.832031 125.4375 -166.375 L 125.4375 0 Z M 42.25 0 "/></g></g></g><g fill="#ffffff" fill-opacity="1"><g transform="translate(1102.040181, 646.658592)"><g><path d="M 42.25 0 L 42.25 -467.9375 L 125.4375 -467.9375 L 125.4375 -191.71875 L 239.8125 -322.359375 L 338.59375 -322.359375 L 206.671875 -175.46875 L 360.046875 0 L 256.0625 0 L 125.4375 -161.828125 L 125.4375 0 Z M 42.25 0 "/></g></g></g><g fill="#ffffff" fill-opacity="1"><g transform="translate(1471.180195, 646.658592)"><g><path d="M 87.09375 -372.390625 C 71.925781 -372.390625 59.46875 -376.9375 49.71875 -386.03125 C 39.96875 -395.132812 35.09375 -406.617188 35.09375 -420.484375 C 35.09375 -434.347656 39.96875 -445.722656 49.71875 -454.609375 C 59.46875 -463.492188 71.925781 -467.9375 87.09375 -467.9375 C 102.25 -467.9375 114.703125 -463.492188 124.453125 -454.609375 C 134.203125 -445.722656 139.078125 -434.347656 139.078125 -420.484375 C 139.078125 -406.617188 134.203125 -395.132812 124.453125 -386.03125 C 114.703125 -376.9375 102.25 -372.390625 87.09375 -372.390625 Z M 45.5 0 L 45.5 -322.359375 L 128.6875 -322.359375 L 128.6875 0 Z M 45.5 0 "/></g></g></g><g fill="#ffffff" fill-opacity="1"><g transform="translate(1644.701963, 646.658592)"><g><path d="M 42.25 0 L 42.25 -322.359375 L 116.328125 -322.359375 L 124.125 -261.90625 C 135.820312 -282.707031 151.742188 -299.28125 171.890625 -311.625 C 192.046875 -323.976562 215.769531 -330.15625 243.0625 -330.15625 L 243.0625 -242.421875 L 219.671875 -242.421875 C 201.472656 -242.421875 185.222656 -239.601562 170.921875 -233.96875 C 156.628906 -228.332031 145.472656 -218.582031 137.453125 -204.71875 C 129.441406 -190.851562 125.4375 -171.570312 125.4375 -146.875 L 125.4375 0 Z M 42.25 0 "/></g></g></g><g fill="#ffffff" fill-opacity="1"><g transform="translate(1902.060058, 646.658592)"><g><path d="M 198.875 7.796875 C 166.375 7.796875 137.554688 0.863281 112.421875 -13 C 87.296875 -26.863281 67.582031 -46.359375 53.28125 -71.484375 C 38.988281 -96.617188 31.84375 -125.648438 31.84375 -158.578125 C 31.84375 -191.941406 38.882812 -221.617188 52.96875 -247.609375 C 67.050781 -273.609375 86.546875 -293.863281 111.453125 -308.375 C 136.367188 -322.894531 165.722656 -330.15625 199.515625 -330.15625 C 231.148438 -330.15625 259.097656 -323.222656 283.359375 -309.359375 C 307.617188 -295.492188 326.570312 -276.535156 340.21875 -252.484375 C 353.875 -228.441406 360.703125 -201.6875 360.703125 -172.21875 C 360.703125 -167.457031 360.59375 -162.476562 360.375 -157.28125 C 360.15625 -152.082031 359.828125 -146.664062 359.390625 -141.03125 L 114.390625 -141.03125 C 116.117188 -115.894531 124.890625 -96.175781 140.703125 -81.875 C 156.515625 -67.582031 175.6875 -60.4375 198.21875 -60.4375 C 215.113281 -60.4375 229.300781 -64.226562 240.78125 -71.8125 C 252.269531 -79.394531 260.832031 -89.253906 266.46875 -101.390625 L 350.953125 -101.390625 C 344.878906 -81.023438 334.800781 -62.5 320.71875 -45.8125 C 306.644531 -29.132812 289.316406 -16.03125 268.734375 -6.5 C 248.148438 3.03125 224.863281 7.796875 198.875 7.796875 Z M 199.515625 -262.5625 C 179.148438 -262.5625 161.171875 -256.816406 145.578125 -245.328125 C 129.984375 -233.847656 120.019531 -216.410156 115.6875 -193.015625 L 276.203125 -193.015625 C 274.910156 -214.253906 267.113281 -231.15625 252.8125 -243.71875 C 238.507812 -256.28125 220.742188 -262.5625 199.515625 -262.5625 Z M 199.515625 -262.5625 "/></g></g></g><g fill="#ffffff" fill-opacity="1"><g transform="translate(2290.696965, 646.658592)"><g><path d="M 198.875 7.796875 C 166.375 7.796875 137.554688 0.863281 112.421875 -13 C 87.296875 -26.863281 67.582031 -46.359375 53.28125 -71.484375 C 38.988281 -96.617188 31.84375 -125.648438 31.84375 -158.578125 C 31.84375 -191.941406 38.882812 -221.617188 52.96875 -247.609375 C 67.050781 -273.609375 86.546875 -293.863281 111.453125 -308.375 C 136.367188 -322.894531 165.722656 -330.15625 199.515625 -330.15625 C 231.148438 -330.15625 259.097656 -323.222656 283.359375 -309.359375 C 307.617188 -295.492188 326.570312 -276.535156 340.21875 -252.484375 C 353.875 -228.441406 360.703125 -201.6875 360.703125 -172.21875 C 360.703125 -167.457031 360.59375 -162.476562 360.375 -157.28125 C 360.15625 -152.082031 359.828125 -146.664062 359.390625 -141.03125 L 114.390625 -141.03125 C 116.117188 -115.894531 124.890625 -96.175781 140.703125 -81.875 C 156.515625 -67.582031 175.6875 -60.4375 198.21875 -60.4375 C 215.113281 -60.4375 229.300781 -64.226562 240.78125 -71.8125 C 252.269531 -79.394531 260.832031 -89.253906 266.46875 -101.390625 L 350.953125 -101.390625 C 344.878906 -81.023438 334.800781 -62.5 320.71875 -45.8125 C 306.644531 -29.132812 289.316406 -16.03125 268.734375 -6.5 C 248.148438 3.03125 224.863281 7.796875 198.875 7.796875 Z M 199.515625 -262.5625 C 179.148438 -262.5625 161.171875 -256.816406 145.578125 -245.328125 C 129.984375 -233.847656 120.019531 -216.410156 115.6875 -193.015625 L 276.203125 -193.015625 C 274.910156 -214.253906 267.113281 -231.15625 252.8125 -243.71875 C 238.507812 -256.28125 220.742188 -262.5625 199.515625 -262.5625 Z M 199.515625 -262.5625 "/></g></g></g><g fill="#ffffff" fill-opacity="1"><g transform="translate(2679.333693, 646.658592)"><g><path d="M 42.25 0 L 42.25 -467.9375 L 125.4375 -467.9375 L 125.4375 0 Z M 42.25 0 "/></g></g></g><g fill="#ffffff" fill-opacity="1"><g transform="translate(2847.65638, 646.658592)"><g><path d="M 153.375 7.796875 C 125.644531 7.796875 102.894531 3.359375 85.125 -5.515625 C 67.363281 -14.398438 54.148438 -26.207031 45.484375 -40.9375 C 36.828125 -55.675781 32.5 -71.925781 32.5 -89.6875 C 32.5 -119.582031 44.195312 -143.84375 67.59375 -162.46875 C 90.988281 -181.101562 126.082031 -190.421875 172.875 -190.421875 L 254.765625 -190.421875 L 254.765625 -198.21875 C 254.765625 -220.3125 248.476562 -236.554688 235.90625 -246.953125 C 223.34375 -257.359375 207.75 -262.5625 189.125 -262.5625 C 172.226562 -262.5625 157.492188 -258.550781 144.921875 -250.53125 C 132.359375 -242.519531 124.5625 -230.71875 121.53125 -215.125 L 40.296875 -215.125 C 42.460938 -238.519531 50.367188 -258.878906 64.015625 -276.203125 C 77.660156 -293.535156 95.316406 -306.859375 116.984375 -316.171875 C 138.648438 -325.492188 162.910156 -330.15625 189.765625 -330.15625 C 235.691406 -330.15625 271.867188 -318.671875 298.296875 -295.703125 C 324.734375 -272.742188 337.953125 -240.25 337.953125 -198.21875 L 337.953125 0 L 267.109375 0 L 259.3125 -52 C 249.78125 -34.664062 236.457031 -20.363281 219.34375 -9.09375 C 202.226562 2.164062 180.238281 7.796875 153.375 7.796875 Z M 172.21875 -57.1875 C 196.050781 -57.1875 214.570312 -64.984375 227.78125 -80.578125 C 241 -96.179688 249.34375 -115.46875 252.8125 -138.4375 L 181.96875 -138.4375 C 159.875 -138.4375 144.0625 -134.425781 134.53125 -126.40625 C 125 -118.394531 120.234375 -108.539062 120.234375 -96.84375 C 120.234375 -84.269531 125 -74.515625 134.53125 -67.578125 C 144.0625 -60.648438 156.625 -57.1875 172.21875 -57.1875 Z M 172.21875 -57.1875 "/></g></g></g><g fill="#ffffff" fill-opacity="1"><g transform="translate(3222.645507, 646.658592)"><g><path d="M 233.3125 7.796875 C 209.050781 7.796875 187.820312 3.25 169.625 -5.84375 C 151.425781 -14.945312 136.695312 -27.726562 125.4375 -44.1875 L 116.328125 0 L 42.25 0 L 42.25 -467.9375 L 125.4375 -467.9375 L 125.4375 -276.203125 C 135.832031 -290.503906 149.585938 -303.070312 166.703125 -313.90625 C 183.816406 -324.738281 206.019531 -330.15625 233.3125 -330.15625 C 263.644531 -330.15625 290.722656 -322.785156 314.546875 -308.046875 C 338.378906 -293.316406 357.226562 -273.171875 371.09375 -247.609375 C 384.957031 -222.046875 391.890625 -193.019531 391.890625 -160.53125 C 391.890625 -128.03125 384.957031 -99.109375 371.09375 -73.765625 C 357.226562 -48.421875 338.378906 -28.488281 314.546875 -13.96875 C 290.722656 0.539062 263.644531 7.796875 233.3125 7.796875 Z M 215.765625 -64.984375 C 242.191406 -64.984375 264.070312 -73.863281 281.40625 -91.625 C 298.738281 -109.394531 307.40625 -132.363281 307.40625 -160.53125 C 307.40625 -188.6875 298.738281 -211.863281 281.40625 -230.0625 C 264.070312 -248.257812 242.191406 -257.359375 215.765625 -257.359375 C 188.898438 -257.359375 166.910156 -248.367188 149.796875 -230.390625 C 132.679688 -212.410156 124.125 -189.335938 124.125 -161.171875 C 124.125 -133.015625 132.679688 -109.941406 149.796875 -91.953125 C 166.910156 -73.972656 188.898438 -64.984375 215.765625 -64.984375 Z M 215.765625 -64.984375 "/></g></g></g><g fill="#ffffff" fill-opacity="1"><g transform="translate(3646.376374, 646.658592)"><g><path d="M 175.46875 7.796875 C 146.875 7.796875 121.742188 3.140625 100.078125 -6.171875 C 78.421875 -15.484375 61.09375 -28.375 48.09375 -44.84375 C 35.09375 -61.3125 27.296875 -80.375 24.703125 -102.03125 L 108.53125 -102.03125 C 111.132812 -89.46875 118.175781 -78.742188 129.65625 -69.859375 C 141.132812 -60.984375 155.972656 -56.546875 174.171875 -56.546875 C 192.367188 -56.546875 205.691406 -60.226562 214.140625 -67.59375 C 222.585938 -74.957031 226.8125 -83.40625 226.8125 -92.9375 C 226.8125 -106.800781 220.742188 -116.222656 208.609375 -121.203125 C 196.484375 -126.191406 179.585938 -131.066406 157.921875 -135.828125 C 144.054688 -138.859375 129.972656 -142.539062 115.671875 -146.875 C 101.378906 -151.207031 88.273438 -156.734375 76.359375 -163.453125 C 64.441406 -170.171875 54.800781 -178.835938 47.4375 -189.453125 C 40.070312 -200.066406 36.390625 -213.171875 36.390625 -228.765625 C 36.390625 -257.359375 47.765625 -281.40625 70.515625 -300.90625 C 93.265625 -320.40625 125.21875 -330.15625 166.375 -330.15625 C 204.5 -330.15625 234.9375 -321.269531 257.6875 -303.5 C 280.4375 -285.738281 293.976562 -261.257812 298.3125 -230.0625 L 219.671875 -230.0625 C 214.898438 -253.894531 196.914062 -265.8125 165.71875 -265.8125 C 150.125 -265.8125 138.101562 -262.773438 129.65625 -256.703125 C 121.207031 -250.640625 116.984375 -243.0625 116.984375 -233.96875 C 116.984375 -224.4375 123.265625 -216.851562 135.828125 -211.21875 C 148.390625 -205.582031 165.070312 -200.382812 185.875 -195.625 C 208.40625 -190.425781 229.09375 -184.679688 247.9375 -178.390625 C 266.78125 -172.109375 281.832031 -162.796875 293.09375 -150.453125 C 304.363281 -138.109375 310 -120.453125 310 -97.484375 C 310.4375 -77.554688 305.238281 -59.578125 294.40625 -43.546875 C 283.570312 -27.515625 267.972656 -14.945312 247.609375 -5.84375 C 227.242188 3.25 203.195312 7.796875 175.46875 7.796875 Z M 175.46875 7.796875 "/></g></g></g></g></g></g><g clip-path="url(#beca8f796c)"><g transform="matrix(1, 0, 0, 1, 80, 479)"><g clip-path="url(#99a6cc5a17)"><g clip-path="url(#bd77e7edc4)"><path fill="#eb1600" d="M 0.226562 0.828125 L 637.113281 0.828125 L 637.113281 642.695312 L 0.226562 642.695312 Z M 0.226562 0.828125 " fill-opacity="1" fill-rule="nonzero"/></g></g></g></g><g clip-path="url(#d15662a629)"><g clip-path="url(#a6fc4b2f4b)"><g clip-path="url(#c3522b5d6a)"><path fill="#ffffff" d="M 666.285156 729.554688 C 651.375 721.207031 632.34375 726.574219 623.996094 741.484375 C 619.867188 748.851562 619.089844 757.230469 621.164062 764.824219 L 498.855469 823.867188 C 496.40625 820.738281 493.425781 817.929688 489.753906 815.875 C 476.710938 808.570312 460.449219 811.765625 451.007812 822.667969 L 352.398438 767.453125 C 356.757812 753.707031 350.984375 738.171875 337.941406 730.867188 C 323.03125 722.519531 304 727.890625 295.652344 742.796875 C 291.527344 750.164062 290.75 758.542969 292.820312 766.140625 L 170.511719 825.179688 C 168.0625 822.050781 165.082031 819.246094 161.410156 817.191406 C 146.503906 808.84375 127.46875 814.210938 119.121094 829.121094 C 110.773438 844.027344 116.144531 863.0625 131.050781 871.410156 C 145.960938 879.757812 164.992188 874.386719 173.339844 859.480469 C 177.46875 852.109375 178.246094 843.734375 176.171875 836.136719 L 298.214844 777.171875 C 300.683594 780.363281 303.855469 783 307.582031 785.085938 C 320.683594 792.421875 336.90625 789.3125 346.324219 778.296875 L 444.9375 833.511719 C 440.46875 847.300781 446.292969 862.757812 459.394531 870.09375 C 474.300781 878.441406 493.335938 873.074219 501.683594 858.164062 C 505.808594 850.796875 506.589844 842.421875 504.515625 834.824219 L 626.558594 775.859375 C 629.027344 779.050781 632.195312 781.6875 635.925781 783.773438 C 650.832031 792.121094 669.867188 786.75 678.214844 771.84375 C 686.5625 756.933594 681.191406 737.902344 666.285156 729.554688 Z M 660.210938 740.398438 C 669.257812 745.464844 672.4375 756.722656 667.371094 765.773438 C 662.304688 774.820312 651.042969 777.996094 641.996094 772.929688 C 632.949219 767.863281 629.773438 756.601562 634.839844 747.554688 C 639.90625 738.507812 651.164062 735.332031 660.210938 740.398438 Z M 331.867188 741.710938 C 340.917969 746.777344 344.09375 758.039062 339.027344 767.085938 C 333.960938 776.132812 322.699219 779.308594 313.652344 774.242188 C 304.605469 769.175781 301.429688 757.917969 306.496094 748.871094 C 311.5625 739.820312 322.820312 736.644531 331.867188 741.710938 Z M 483.683594 826.71875 C 492.730469 831.785156 495.90625 843.046875 490.839844 852.09375 C 485.773438 861.140625 474.515625 864.316406 465.464844 859.25 C 456.417969 854.183594 453.242188 842.925781 458.308594 833.878906 C 463.375 824.828125 474.632812 821.652344 483.683594 826.71875 Z M 155.339844 828.035156 C 164.386719 833.101562 167.5625 844.359375 162.496094 853.40625 C 157.429688 862.453125 146.171875 865.632812 137.125 860.566406 C 128.074219 855.5 124.898438 844.238281 129.964844 835.191406 C 135.03125 826.144531 146.292969 822.96875 155.339844 828.035156 Z M 155.339844 828.035156 " fill-opacity="1" fill-rule="nonzero"/></g></g></g><g fill="#000000" fill-opacity="1"><g transform="translate(2336.935378, 1163.270949)"><g><path d="M 8.84375 0.375 C 7.625 0.375 6.492188 0.210938 5.453125 -0.109375 C 4.421875 -0.429688 3.546875 -0.875 2.828125 -1.4375 C 2.109375 -2 1.601562 -2.632812 1.3125 -3.34375 L 3 -5.09375 L 3.375 -5.09375 C 4.007812 -4.132812 4.769531 -3.410156 5.65625 -2.921875 C 6.550781 -2.441406 7.613281 -2.203125 8.84375 -2.203125 C 10.269531 -2.203125 11.351562 -2.476562 12.09375 -3.03125 C 12.84375 -3.582031 13.21875 -4.359375 13.21875 -5.359375 C 13.21875 -6.117188 12.988281 -6.75 12.53125 -7.25 C 12.082031 -7.75 11.351562 -8.117188 10.34375 -8.359375 L 7.078125 -9.171875 C 5.335938 -9.585938 4.066406 -10.253906 3.265625 -11.171875 C 2.460938 -12.085938 2.0625 -13.21875 2.0625 -14.5625 C 2.0625 -15.613281 2.328125 -16.53125 2.859375 -17.3125 C 3.398438 -18.09375 4.175781 -18.691406 5.1875 -19.109375 C 6.207031 -19.535156 7.410156 -19.75 8.796875 -19.75 C 10.578125 -19.75 11.976562 -19.5 13 -19 C 14.03125 -18.5 14.832031 -17.804688 15.40625 -16.921875 L 13.796875 -15.34375 L 13.4375 -15.34375 C 12.820312 -16.050781 12.144531 -16.5625 11.40625 -16.875 C 10.675781 -17.195312 9.804688 -17.359375 8.796875 -17.359375 C 7.523438 -17.359375 6.546875 -17.128906 5.859375 -16.671875 C 5.179688 -16.210938 4.84375 -15.550781 4.84375 -14.6875 C 4.84375 -13.90625 5.082031 -13.273438 5.5625 -12.796875 C 6.050781 -12.316406 6.890625 -11.925781 8.078125 -11.625 L 11.296875 -10.859375 C 12.984375 -10.460938 14.203125 -9.800781 14.953125 -8.875 C 15.703125 -7.945312 16.078125 -6.785156 16.078125 -5.390625 C 16.078125 -4.253906 15.804688 -3.253906 15.265625 -2.390625 C 14.722656 -1.523438 13.90625 -0.847656 12.8125 -0.359375 C 11.726562 0.128906 10.40625 0.375 8.84375 0.375 Z M 8.84375 0.375 "/></g></g><g transform="translate(2354.855991, 1163.270949)"><g><path d="M 8 0.375 C 6.082031 0.375 4.585938 -0.125 3.515625 -1.125 C 2.453125 -2.125 1.921875 -3.546875 1.921875 -5.390625 C 1.921875 -6.535156 2.15625 -7.503906 2.625 -8.296875 C 3.101562 -9.085938 3.835938 -9.734375 4.828125 -10.234375 C 5.828125 -10.734375 7.128906 -11.117188 8.734375 -11.390625 C 10.140625 -11.617188 11.207031 -11.878906 11.9375 -12.171875 C 12.664062 -12.460938 13.15625 -12.789062 13.40625 -13.15625 C 13.664062 -13.519531 13.796875 -13.976562 13.796875 -14.53125 C 13.796875 -15.40625 13.492188 -16.078125 12.890625 -16.546875 C 12.285156 -17.015625 11.316406 -17.25 9.984375 -17.25 C 8.722656 -17.25 7.644531 -17.003906 6.75 -16.515625 C 5.851562 -16.035156 5.03125 -15.316406 4.28125 -14.359375 L 3.9375 -14.359375 L 2.53125 -16.34375 C 3.351562 -17.382812 4.394531 -18.210938 5.65625 -18.828125 C 6.925781 -19.441406 8.367188 -19.75 9.984375 -19.75 C 12.265625 -19.75 13.945312 -19.25 15.03125 -18.25 C 16.113281 -17.25 16.65625 -15.863281 16.65625 -14.09375 L 16.65625 -3.8125 C 16.65625 -2.738281 17.113281 -2.203125 18.03125 -2.203125 C 18.332031 -2.203125 18.625 -2.253906 18.90625 -2.359375 L 19.15625 -2.28125 L 19.484375 -0.296875 C 19.273438 -0.160156 18.992188 -0.0546875 18.640625 0.015625 C 18.296875 0.0976562 17.945312 0.140625 17.59375 0.140625 C 16.519531 0.140625 15.710938 -0.09375 15.171875 -0.5625 C 14.628906 -1.03125 14.28125 -1.722656 14.125 -2.640625 L 13.75 -2.671875 C 13.207031 -1.648438 12.46875 -0.882812 11.53125 -0.375 C 10.59375 0.125 9.414062 0.375 8 0.375 Z M 8.625 -1.921875 C 9.707031 -1.921875 10.640625 -2.164062 11.421875 -2.65625 C 12.210938 -3.15625 12.816406 -3.851562 13.234375 -4.75 C 13.660156 -5.65625 13.875 -6.703125 13.875 -7.890625 L 13.875 -10.34375 L 13.546875 -10.421875 C 13.109375 -10.117188 12.578125 -9.863281 11.953125 -9.65625 C 11.335938 -9.445312 10.472656 -9.257812 9.359375 -9.09375 C 8.234375 -8.945312 7.335938 -8.710938 6.671875 -8.390625 C 6.015625 -8.078125 5.546875 -7.675781 5.265625 -7.1875 C 4.984375 -6.707031 4.84375 -6.109375 4.84375 -5.390625 C 4.84375 -4.253906 5.175781 -3.390625 5.84375 -2.796875 C 6.519531 -2.210938 7.445312 -1.921875 8.625 -1.921875 Z M 8.625 -1.921875 "/></g></g><g transform="translate(2374.902481, 1163.270949)"><g><path d="M 10.046875 0.375 C 8.492188 0.375 7.117188 0.00390625 5.921875 -0.734375 C 4.734375 -1.484375 3.800781 -2.609375 3.125 -4.109375 C 2.457031 -5.609375 2.125 -7.46875 2.125 -9.6875 C 2.125 -11.894531 2.472656 -13.75 3.171875 -15.25 C 3.878906 -16.757812 4.847656 -17.882812 6.078125 -18.625 C 7.316406 -19.375 8.753906 -19.75 10.390625 -19.75 C 11.671875 -19.75 12.828125 -19.503906 13.859375 -19.015625 C 14.890625 -18.535156 15.773438 -17.738281 16.515625 -16.625 L 16.890625 -16.6875 L 16.890625 -27.15625 L 19.75 -27.15625 L 19.75 0 L 16.890625 0 L 16.890625 -2.828125 L 16.515625 -2.90625 C 15.878906 -1.9375 15.019531 -1.144531 13.9375 -0.53125 C 12.851562 0.0703125 11.554688 0.375 10.046875 0.375 Z M 10.953125 -2.203125 C 12.753906 -2.203125 14.191406 -2.816406 15.265625 -4.046875 C 16.347656 -5.285156 16.890625 -7.164062 16.890625 -9.6875 C 16.890625 -12.21875 16.347656 -14.097656 15.265625 -15.328125 C 14.191406 -16.566406 12.753906 -17.1875 10.953125 -17.1875 C 9.085938 -17.1875 7.648438 -16.582031 6.640625 -15.375 C 5.628906 -14.164062 5.125 -12.269531 5.125 -9.6875 C 5.125 -4.695312 7.066406 -2.203125 10.953125 -2.203125 Z M 10.953125 -2.203125 "/></g></g><g transform="translate(2398.041155, 1163.270949)"><g><path d="M 4.8125 -23.125 C 4.207031 -23.125 3.710938 -23.3125 3.328125 -23.6875 C 2.953125 -24.070312 2.765625 -24.554688 2.765625 -25.140625 C 2.765625 -25.722656 2.953125 -26.203125 3.328125 -26.578125 C 3.710938 -26.960938 4.207031 -27.15625 4.8125 -27.15625 C 5.425781 -27.15625 5.921875 -26.960938 6.296875 -26.578125 C 6.679688 -26.203125 6.875 -25.722656 6.875 -25.140625 C 6.875 -24.554688 6.679688 -24.070312 6.296875 -23.6875 C 5.921875 -23.3125 5.425781 -23.125 4.8125 -23.125 Z M 3.375 0 L 3.375 -19.375 L 6.234375 -19.375 L 6.234375 0 Z M 3.375 0 "/></g></g><g transform="translate(2407.651522, 1163.270949)"><g><path d="M 3.375 0 L 3.375 -19.375 L 6.09375 -19.375 L 6.09375 -16.34375 L 6.46875 -16.25 C 7.113281 -17.382812 7.9375 -18.25 8.9375 -18.84375 C 9.9375 -19.445312 11.15625 -19.75 12.59375 -19.75 C 14.925781 -19.75 16.613281 -19.15625 17.65625 -17.96875 C 18.707031 -16.78125 19.234375 -14.945312 19.234375 -12.46875 L 19.234375 0 L 16.375 0 L 16.375 -12.40625 C 16.375 -13.570312 16.222656 -14.507812 15.921875 -15.21875 C 15.628906 -15.925781 15.164062 -16.441406 14.53125 -16.765625 C 13.90625 -17.085938 13.085938 -17.25 12.078125 -17.25 C 10.328125 -17.25 8.914062 -16.671875 7.84375 -15.515625 C 6.769531 -14.367188 6.234375 -12.507812 6.234375 -9.9375 L 6.234375 0 Z M 3.375 0 "/></g></g><g transform="translate(2429.964443, 1163.270949)"><g><path d="M 17.390625 5.5 C 14.390625 5.5 11.769531 4.878906 9.53125 3.640625 C 7.289062 2.410156 5.554688 0.628906 4.328125 -1.703125 C 3.109375 -4.046875 2.5 -6.828125 2.5 -10.046875 C 2.5 -13.066406 3.117188 -15.765625 4.359375 -18.140625 C 5.609375 -20.515625 7.390625 -22.363281 9.703125 -23.6875 C 12.015625 -25.019531 14.710938 -25.6875 17.796875 -25.6875 C 20.898438 -25.6875 23.578125 -25.078125 25.828125 -23.859375 C 28.078125 -22.640625 29.796875 -20.898438 30.984375 -18.640625 C 32.171875 -16.390625 32.765625 -13.75 32.765625 -10.71875 C 32.765625 -9.019531 32.476562 -7.492188 31.90625 -6.140625 C 31.34375 -4.796875 30.570312 -3.75 29.59375 -3 C 28.625 -2.25 27.554688 -1.875 26.390625 -1.875 C 25.179688 -1.875 24.222656 -2.101562 23.515625 -2.5625 C 22.804688 -3.03125 22.269531 -3.738281 21.90625 -4.6875 L 21.578125 -4.6875 C 20.992188 -3.695312 20.269531 -2.976562 19.40625 -2.53125 C 18.539062 -2.09375 17.5 -1.875 16.28125 -1.875 C 15.082031 -1.875 14.003906 -2.1875 13.046875 -2.8125 C 12.097656 -3.4375 11.351562 -4.347656 10.8125 -5.546875 C 10.28125 -6.753906 10.015625 -8.21875 10.015625 -9.9375 C 10.015625 -11.664062 10.296875 -13.140625 10.859375 -14.359375 C 11.421875 -15.578125 12.195312 -16.5 13.1875 -17.125 C 14.1875 -17.75 15.332031 -18.0625 16.625 -18.0625 C 17.664062 -18.0625 18.578125 -17.863281 19.359375 -17.46875 C 20.148438 -17.070312 20.832031 -16.394531 21.40625 -15.4375 L 21.734375 -15.5 L 21.734375 -17.765625 L 24.296875 -17.765625 L 24.296875 -6.875 C 24.296875 -5.875 24.46875 -5.15625 24.8125 -4.71875 C 25.164062 -4.289062 25.703125 -4.078125 26.421875 -4.078125 C 27.078125 -4.078125 27.6875 -4.320312 28.25 -4.8125 C 28.820312 -5.3125 29.28125 -6.0625 29.625 -7.0625 C 29.96875 -8.070312 30.140625 -9.289062 30.140625 -10.71875 C 30.140625 -13.257812 29.664062 -15.460938 28.71875 -17.328125 C 27.769531 -19.203125 26.375 -20.644531 24.53125 -21.65625 C 22.6875 -22.675781 20.441406 -23.1875 17.796875 -23.1875 C 15.171875 -23.1875 12.921875 -22.640625 11.046875 -21.546875 C 9.171875 -20.460938 7.75 -18.929688 6.78125 -16.953125 C 5.8125 -14.984375 5.328125 -12.679688 5.328125 -10.046875 C 5.328125 -7.304688 5.800781 -4.957031 6.75 -3 C 7.695312 -1.039062 9.070312 0.445312 10.875 1.46875 C 12.6875 2.488281 14.859375 3 17.390625 3 C 18.585938 3 19.710938 2.878906 20.765625 2.640625 C 21.816406 2.398438 22.710938 2.070312 23.453125 1.65625 L 23.796875 1.65625 L 24.640625 3.671875 C 24.015625 4.191406 23.039062 4.625 21.71875 4.96875 C 20.394531 5.320312 18.953125 5.5 17.390625 5.5 Z M 17.1875 -4.25 C 18.070312 -4.25 18.851562 -4.457031 19.53125 -4.875 C 20.21875 -5.300781 20.753906 -5.941406 21.140625 -6.796875 C 21.535156 -7.648438 21.734375 -8.695312 21.734375 -9.9375 C 21.734375 -11.1875 21.535156 -12.238281 21.140625 -13.09375 C 20.753906 -13.957031 20.21875 -14.601562 19.53125 -15.03125 C 18.851562 -15.457031 18.070312 -15.671875 17.1875 -15.671875 C 15.726562 -15.671875 14.617188 -15.207031 13.859375 -14.28125 C 13.109375 -13.351562 12.734375 -11.90625 12.734375 -9.9375 C 12.734375 -7.976562 13.109375 -6.539062 13.859375 -5.625 C 14.617188 -4.707031 15.726562 -4.25 17.1875 -4.25 Z M 17.1875 -4.25 "/></g></g><g transform="translate(2464.944776, 1163.270949)"><g><path d="M 22.171875 -18.0625 L 22.171875 -15.703125 L 17.921875 -15.703125 L 16.953125 -9.984375 L 21.171875 -9.984375 L 21.171875 -7.640625 L 16.546875 -7.640625 L 15.265625 0 L 12.671875 0 L 13.953125 -7.640625 L 8.0625 -7.640625 L 6.78125 0 L 4.1875 0 L 5.46875 -7.640625 L 1.609375 -7.640625 L 1.609375 -9.984375 L 5.875 -9.984375 L 6.828125 -15.703125 L 2.59375 -15.703125 L 2.59375 -18.0625 L 7.234375 -18.0625 L 8.515625 -25.6875 L 11.125 -25.6875 L 9.84375 -18.0625 L 15.703125 -18.0625 L 16.984375 -25.6875 L 19.609375 -25.6875 L 18.328125 -18.0625 Z M 8.46875 -9.984375 L 14.359375 -9.984375 L 15.296875 -15.703125 L 9.4375 -15.703125 Z M 8.46875 -9.984375 "/></g></g><g transform="translate(2488.733512, 1163.270949)"><g><path d="M 1.828125 0 L 1.828125 -2.5 L 8.84375 -2.5 L 8.84375 -22.140625 L 8.4375 -22.25 C 7.300781 -21.6875 6.304688 -21.253906 5.453125 -20.953125 C 4.597656 -20.648438 3.5 -20.359375 2.15625 -20.078125 L 2.15625 -22.859375 C 3.476562 -23.140625 4.785156 -23.519531 6.078125 -24 C 7.378906 -24.476562 8.554688 -25.039062 9.609375 -25.6875 L 11.796875 -25.6875 L 11.796875 -2.5 L 18.0625 -2.5 L 18.0625 0 Z M 1.828125 0 "/></g></g><g transform="translate(2507.88397, 1163.270949)"><g><path d="M 1.828125 0 L 1.828125 -2.5 L 8.84375 -2.5 L 8.84375 -22.140625 L 8.4375 -22.25 C 7.300781 -21.6875 6.304688 -21.253906 5.453125 -20.953125 C 4.597656 -20.648438 3.5 -20.359375 2.15625 -20.078125 L 2.15625 -22.859375 C 3.476562 -23.140625 4.785156 -23.519531 6.078125 -24 C 7.378906 -24.476562 8.554688 -25.039062 9.609375 -25.6875 L 11.796875 -25.6875 L 11.796875 -2.5 L 18.0625 -2.5 L 18.0625 0 Z M 1.828125 0 "/></g></g><g transform="translate(2527.034429, 1163.270949)"><g><path d="M 10.171875 0.375 C 7.679688 0.375 5.703125 -0.1875 4.234375 -1.3125 C 2.765625 -2.4375 1.816406 -3.992188 1.390625 -5.984375 L 3.640625 -7.015625 L 4.046875 -6.9375 C 4.484375 -5.40625 5.164062 -4.257812 6.09375 -3.5 C 7.03125 -2.738281 8.390625 -2.359375 10.171875 -2.359375 C 11.984375 -2.359375 13.363281 -2.769531 14.3125 -3.59375 C 15.269531 -4.425781 15.75 -5.65625 15.75 -7.28125 C 15.75 -8.851562 15.265625 -10.054688 14.296875 -10.890625 C 13.328125 -11.722656 11.804688 -12.140625 9.734375 -12.140625 L 6.9375 -12.140625 L 6.9375 -14.640625 L 9.4375 -14.640625 C 11.050781 -14.640625 12.332031 -15.039062 13.28125 -15.84375 C 14.238281 -16.644531 14.71875 -17.773438 14.71875 -19.234375 C 14.71875 -20.628906 14.304688 -21.675781 13.484375 -22.375 C 12.660156 -23.070312 11.503906 -23.421875 10.015625 -23.421875 C 7.421875 -23.421875 5.578125 -22.390625 4.484375 -20.328125 L 4.078125 -20.265625 L 2.390625 -22.109375 C 3.078125 -23.285156 4.070312 -24.238281 5.375 -24.96875 C 6.675781 -25.695312 8.222656 -26.0625 10.015625 -26.0625 C 11.648438 -26.0625 13.046875 -25.804688 14.203125 -25.296875 C 15.359375 -24.785156 16.234375 -24.046875 16.828125 -23.078125 C 17.429688 -22.117188 17.734375 -20.972656 17.734375 -19.640625 C 17.734375 -18.378906 17.363281 -17.269531 16.625 -16.3125 C 15.894531 -15.351562 14.925781 -14.601562 13.71875 -14.0625 L 13.71875 -13.6875 C 15.414062 -13.28125 16.691406 -12.515625 17.546875 -11.390625 C 18.398438 -10.273438 18.828125 -8.90625 18.828125 -7.28125 C 18.828125 -4.84375 18.101562 -2.957031 16.65625 -1.625 C 15.207031 -0.289062 13.046875 0.375 10.171875 0.375 Z M 10.171875 0.375 "/></g></g><g transform="translate(2547.906673, 1163.270949)"><g><path d="M 10.171875 0.375 C 7.679688 0.375 5.703125 -0.1875 4.234375 -1.3125 C 2.765625 -2.4375 1.816406 -3.992188 1.390625 -5.984375 L 3.640625 -7.015625 L 4.046875 -6.9375 C 4.484375 -5.40625 5.164062 -4.257812 6.09375 -3.5 C 7.03125 -2.738281 8.390625 -2.359375 10.171875 -2.359375 C 11.984375 -2.359375 13.363281 -2.769531 14.3125 -3.59375 C 15.269531 -4.425781 15.75 -5.65625 15.75 -7.28125 C 15.75 -8.851562 15.265625 -10.054688 14.296875 -10.890625 C 13.328125 -11.722656 11.804688 -12.140625 9.734375 -12.140625 L 6.9375 -12.140625 L 6.9375 -14.640625 L 9.4375 -14.640625 C 11.050781 -14.640625 12.332031 -15.039062 13.28125 -15.84375 C 14.238281 -16.644531 14.71875 -17.773438 14.71875 -19.234375 C 14.71875 -20.628906 14.304688 -21.675781 13.484375 -22.375 C 12.660156 -23.070312 11.503906 -23.421875 10.015625 -23.421875 C 7.421875 -23.421875 5.578125 -22.390625 4.484375 -20.328125 L 4.078125 -20.265625 L 2.390625 -22.109375 C 3.078125 -23.285156 4.070312 -24.238281 5.375 -24.96875 C 6.675781 -25.695312 8.222656 -26.0625 10.015625 -26.0625 C 11.648438 -26.0625 13.046875 -25.804688 14.203125 -25.296875 C 15.359375 -24.785156 16.234375 -24.046875 16.828125 -23.078125 C 17.429688 -22.117188 17.734375 -20.972656 17.734375 -19.640625 C 17.734375 -18.378906 17.363281 -17.269531 16.625 -16.3125 C 15.894531 -15.351562 14.925781 -14.601562 13.71875 -14.0625 L 13.71875 -13.6875 C 15.414062 -13.28125 16.691406 -12.515625 17.546875 -11.390625 C 18.398438 -10.273438 18.828125 -8.90625 18.828125 -7.28125 C 18.828125 -4.84375 18.101562 -2.957031 16.65625 -1.625 C 15.207031 -0.289062 13.046875 0.375 10.171875 0.375 Z M 10.171875 0.375 "/></g></g><g transform="translate(2568.778916, 1163.270949)"><g><path d="M 16.078125 0 L 13.21875 0 L 13.21875 -6.125 L 1.171875 -6.125 L 1.171875 -8.5625 L 12.515625 -25.6875 L 16.078125 -25.6875 L 16.078125 -8.5625 L 20.515625 -8.5625 L 20.515625 -6.125 L 16.078125 -6.125 Z M 4.71875 -8.921875 L 4.890625 -8.5625 L 13.21875 -8.5625 L 13.21875 -21.5 L 12.8125 -21.578125 Z M 4.71875 -8.921875 "/></g></g></g></svg>